<?xml version="1.0" encoding="utf-8"?>
<!-- Generator: Adobe Illustrator 28.0.0, SVG Export Plug-In . SVG Version: 6.00 Build 0)  -->
<svg version="1.1" id="Layer_1" xmlns="http://www.w3.org/2000/svg" xmlns:xlink="http://www.w3.org/1999/xlink" x="0px" y="0px"
	 viewBox="0 0 230.84 77.58" style="enable-background:new 0 0 230.84 77.58;" xml:space="preserve">
<style type="text/css">
	.st0{fill:#0033A1;}
	.st1{fill:#FFFFFF;}
	.st2{fill:#BC995D;}
	#mark .st0{fill:#FFFFFF;}
	#mark .st1,
	#mark .st2{fill:none;}
</style>
<g>
	<g id="mark">
	<path class="st0" d="M54.09,58.96C50.05,65.44,42.88,69.5,35.1,69.5c-7.55,0-14.52-3.83-18.62-9.98l-0.6-0.95
		c-0.43-0.72-0.84-1.47-1.19-2.25c-0.84-1.93-1.59-2.95-2.34-3.2c-0.55-0.18-0.98,0.06-1.29,0.23l-0.13,0.07l-2.8,1.31l-0.25,0.12
		c-0.33-1-0.49-1.88-0.51-2.87c-0.02-0.89,0.03-1.74,0.15-2.53L7,49.14c-0.8,0.55-1.88,0.89-2.92,1.21c-1.49,0.47-2.9,0.91-3.6,1.95
		l-0.03,0.04l-0.01,0.05C0.15,53.34,0,54.41,0,55.5c0,3.67,1.76,6.65,3.93,6.65c0.27,0,0.54-0.06,0.8-0.16l0.36-0.18l2.65-1.34
		C12.79,70.8,23.48,77.58,35.1,77.58c11.62,0,22.31-6.78,27.37-17.11l2.65,1.34l0.35,0.18c0.25,0.1,0.53,0.16,0.8,0.16
		c2.17,0,3.93-2.99,3.93-6.65c0-1.08-0.15-2.16-0.45-3.11l-0.01-0.05l-0.03-0.04c-0.7-1.04-2.11-1.48-3.6-1.94
		c-1.04-0.33-2.12-0.66-2.92-1.21l-0.51,0.32c0.12,0.79,0.17,1.64,0.15,2.53c-0.02,1.1-0.16,1.91-0.49,2.88l-0.28-0.13l-2.8-1.31
		l-0.13-0.07c-0.31-0.18-0.74-0.42-1.29-0.23c-0.75,0.25-1.5,1.27-2.34,3.2c-0.35,0.78-0.76,1.52-1.19,2.24"/>
	<path class="st1" d="M6.7,51.62c0-0.56,0.06-1.08,0.11-1.61c-0.78,0.41-1.67,0.7-2.54,0.97c-1.36,0.43-2.64,0.83-3.22,1.65
		c-0.26,0.88-0.4,1.86-0.4,2.86c0,3.25,1.5,5.99,3.27,5.99c0.19,0,0.38-0.04,0.55-0.12l0.21-0.11c0.13-0.08,0.26-0.17,0.36-0.28
		c0.14-0.17,0.3-0.45,0.24-0.83c-0.03-0.21-0.07-0.38-0.1-0.51c-0.07-0.29-0.14-0.45-0.19-0.58l-0.04-0.1l-0.06-0.17
		c-0.23-0.67-0.41-1.37-0.29-1.92c0.01-0.02,0.01-0.05,0.02-0.07c0.01-0.02,0.01-0.04,0.01-0.05c0.09-0.26,0.26-0.48,0.55-0.64
		c0.01,0,0.01-0.01,0.01-0.01c0,0,0.01,0,0.01-0.01l2.07-0.96C6.91,54.05,6.73,53.09,6.71,52C6.71,51.88,6.7,51.75,6.7,51.62
		L6.7,51.62z"/>
	<path class="st1" d="M5.21,56.1c0,0-0.01,0-0.01,0.01c0,0-0.01,0.01-0.01,0.01c-0.29,0.16-0.46,0.38-0.55,0.64
		c-0.01,0.02-0.01,0.03-0.01,0.05c-0.01,0.02-0.01,0.04-0.02,0.07c-0.12,0.54,0.07,1.25,0.29,1.92l0.06,0.17l0.04,0.1
		c0.06,0.13,0.12,0.29,0.19,0.58c0.03,0.14,0.07,0.3,0.1,0.51c0.06,0.38-0.09,0.66-0.24,0.83c-0.1,0.11-0.22,0.2-0.36,0.28
		l-0.21,0.11c-0.18,0.07-0.37,0.12-0.55,0.12c-1.77,0-3.27-2.74-3.27-5.99c0-1,0.14-1.99,0.4-2.86c0.58-0.82,1.86-1.23,3.22-1.65
		c0.87-0.27,1.76-0.56,2.54-0.97c-0.05,0.53-0.11,1.05-0.11,1.61c0,0.13,0,0.26,0,0.38c0.02,1.09,0.2,2.04,0.57,3.14L5.21,56.1
		L5.21,56.1z"/>
	<path class="st1" d="M5.91,60.65c0.04-0.2,0.05-0.4,0.02-0.6c-0.02-0.14-0.05-0.26-0.07-0.37c-0.1-0.48-0.2-0.71-0.27-0.88
		l-0.07-0.16c-0.33-0.96-0.37-1.43-0.27-1.68c0.06-0.18,0.17-0.24,0.24-0.27c0,0,0.01,0,0.01-0.01c0,0,0.01,0,0.01,0
		c0.02-0.01,0.03-0.02,0.05-0.02c0.1-0.04,0.18-0.03,0.23-0.02c0.16,0.06,0.49,0.33,0.89,1.44c0.06,0.17,0.13,0.33,0.2,0.49
		c0.15,0.37,0.3,0.73,0.47,1.09c0.03,0.07,0.07,0.14,0.1,0.22L5.91,60.65L5.91,60.65z"/>
	<path class="st1" d="M62.9,57.86c-0.09,0.24-0.31,0.76-0.41,1c0,0,0,0,0,0C57.84,69.7,46.97,76.92,35.1,76.92
		c-11.57,0-22.2-6.87-27.03-17.27c-0.16-0.35-0.32-0.71-0.47-1.08c-0.1-0.24-0.2-0.48-0.29-0.72c-0.28-0.77-0.57-1.29-0.9-1.58
		c0.51-0.24,1.12-0.52,1.53-0.71c0.06-0.03,0.11-0.05,0.16-0.07c0.19-0.09,0.31-0.14,0.31-0.14l2.83-1.33l0.15-0.08
		c0.3-0.17,0.5-0.27,0.76-0.18c0.38,0.13,1.02,0.72,1.95,2.85c0.31,0.68,0.66,1.34,1.03,1.98c0.15,0.25,0.32,0.59,0.57,0.96
		c4.19,6.54,11.5,10.62,19.41,10.62c8.15,0,15.64-4.33,19.76-11.22l0.22-0.37c0.37-0.64,0.72-1.29,1.03-1.98
		c0.93-2.12,1.57-2.72,1.95-2.85c0.25-0.08,0.46,0.01,0.76,0.18l0.15,0.08c0,0,2.83,1.33,2.83,1.33l2.01,0.93
		C63.48,56.56,63.18,57.08,62.9,57.86L62.9,57.86z"/>
	<path class="st1" d="M64.29,60.65c-0.04-0.2-0.05-0.4-0.02-0.6c0.02-0.14,0.05-0.26,0.07-0.37c0.1-0.48,0.2-0.71,0.27-0.88
		l0.07-0.16c0.33-0.96,0.37-1.43,0.27-1.68c-0.06-0.18-0.17-0.24-0.24-0.27c0,0-0.01,0-0.01-0.01c0,0-0.01,0-0.01,0
		c-0.02-0.01-0.03-0.02-0.05-0.02c-0.1-0.04-0.18-0.03-0.23-0.02c-0.16,0.06-0.49,0.33-0.89,1.44c-0.06,0.17-0.13,0.33-0.2,0.49
		c-0.15,0.37-0.3,0.73-0.47,1.09c-0.03,0.07-0.07,0.14-0.1,0.22L64.29,60.65L64.29,60.65z"/>
	<path class="st1" d="M63.52,51.62c0-0.56-0.06-1.08-0.12-1.61c0.78,0.41,1.67,0.7,2.54,0.97c1.36,0.43,2.63,0.83,3.22,1.65
		c0.26,0.88,0.4,1.86,0.4,2.86c0,3.25-1.5,5.99-3.27,5.99c-0.19,0-0.38-0.04-0.55-0.12l-0.21-0.11c-0.13-0.08-0.26-0.17-0.36-0.28
		c-0.14-0.17-0.3-0.45-0.23-0.83c0.03-0.21,0.07-0.38,0.1-0.51c0.07-0.29,0.14-0.45,0.19-0.58l0.04-0.1l0.06-0.17
		c0.23-0.67,0.41-1.37,0.29-1.92c-0.01-0.02-0.01-0.05-0.02-0.07c-0.01-0.02-0.01-0.04-0.02-0.05c-0.09-0.26-0.26-0.48-0.55-0.64
		c0,0-0.01-0.01-0.01-0.01c0,0-0.01,0-0.01-0.01l-2.07-0.96c0.37-1.09,0.54-2.05,0.57-3.14C63.52,51.88,63.52,51.75,63.52,51.62
		L63.52,51.62z"/>
	<path class="st1" d="M65.01,56.1c0,0,0.01,0,0.01,0.01c0.01,0,0.01,0.01,0.01,0.01c0.29,0.16,0.46,0.38,0.55,0.64
		c0.01,0.02,0.01,0.03,0.02,0.05c0.01,0.02,0.01,0.04,0.02,0.07c0.12,0.54-0.06,1.25-0.29,1.92l-0.06,0.17l-0.04,0.1
		c-0.06,0.13-0.12,0.29-0.19,0.58c-0.03,0.14-0.07,0.3-0.1,0.51c-0.06,0.38,0.09,0.66,0.23,0.83c0.1,0.11,0.22,0.2,0.36,0.28
		l0.21,0.11c0.18,0.07,0.37,0.12,0.55,0.12c1.77,0,3.27-2.74,3.27-5.99c0-1-0.14-1.99-0.4-2.86c-0.58-0.82-1.86-1.23-3.22-1.65
		c-0.87-0.27-1.76-0.56-2.54-0.97c0.06,0.53,0.12,1.05,0.12,1.61c0,0.13,0,0.26,0,0.38c-0.03,1.09-0.2,2.04-0.57,3.14L65.01,56.1
		L65.01,56.1z"/>
	<path class="st0" d="M61.15,0H8.72v31.18c0,5.4,1.12,13.41,6.48,20.93c3.12,4.39,5.6,7.02,9.15,9.71
		c3.57,2.71,7.93,4.79,10.66,5.64l0.1,0.03l0.1-0.03c2.73-0.86,7.08-2.93,10.66-5.64c3.55-2.69,6.03-5.32,9.15-9.71
		c5.35-7.53,6.48-15.54,6.48-20.93V0H61.15L61.15,0z"/>
	<path class="st1" d="M35.1,0.66c0,0,25.08,0,25.73,0c0,0.65,0,30.52,0,30.52c0,5.3-1.1,13.17-6.35,20.55
		c-3.12,4.38-5.48,6.89-9.01,9.57c-3.47,2.63-7.68,4.65-10.36,5.5c-2.68-0.86-6.89-2.87-10.36-5.5c-3.54-2.68-5.89-5.18-9.01-9.57
		c-5.25-7.38-6.36-15.25-6.36-20.55c0,0,0-29.87,0-30.52C10.02,0.66,35.1,0.66,35.1,0.66L35.1,0.66z"/>
	<path class="st0" d="M52.95,4.66c-0.7-0.63-1.6-0.99-2.55-0.99c-0.95,0-1.84,0.36-2.55,0.99c-0.7-0.63-1.6-0.99-2.55-0.99
		c-0.95,0-1.85,0.36-2.55,0.99c-0.7-0.63-1.6-0.99-2.55-0.99c-0.95,0-1.84,0.36-2.55,0.99c-0.7-0.63-1.6-0.99-2.55-0.99
		c-0.95,0-1.84,0.36-2.55,0.99c-0.7-0.63-1.6-0.99-2.55-0.99c-0.95,0-1.85,0.36-2.55,0.99c-0.7-0.63-1.6-0.99-2.55-0.99
		c-0.95,0-1.84,0.36-2.55,0.99c-0.7-0.63-1.6-0.99-2.55-0.99c-0.95,0-1.85,0.36-2.55,0.99c-0.7-0.63-1.6-0.99-2.55-0.99
		c-0.63,0-1.23,0.15-1.78,0.43l-0.05,0.02l-0.02,0.05c-0.29,0.55-0.44,1.14-0.44,1.77l0,0c0,0.94,0.35,1.82,0.98,2.52
		c-0.63,0.7-0.98,1.58-0.98,2.52c0,0.94,0.35,1.82,0.98,2.52c-0.63,0.7-0.98,1.58-0.98,2.52c0,0.94,0.35,1.82,0.98,2.52
		c-0.63,0.7-0.98,1.58-0.98,2.52c0,0.94,0.35,1.82,0.98,2.52c-0.63,0.7-0.98,1.58-0.98,2.52c0,0.94,0.36,1.83,0.99,2.52
		c-0.62,0.69-0.96,1.57-0.96,2.5c0,0.01,0,0.02,0,0.03c0.01,0.95,0.38,1.84,1.02,2.54c-0.41,0.62-0.64,1.33-0.64,2.06
		c0,0.2,0.02,0.4,0.05,0.59c0.15,0.94,0.64,1.76,1.38,2.35c-0.25,0.51-0.38,1.07-0.38,1.62c0,0.37,0.05,0.73,0.16,1.09
		c0.27,0.91,0.88,1.66,1.7,2.15c-0.09,0.33-0.16,0.68-0.16,1.01c0,0.58,0.14,1.16,0.41,1.7c0.43,0.85,1.15,1.48,2.04,1.82
		C18.01,48.23,18,48.34,18,48.45c0,0.83,0.27,1.63,0.78,2.29c0.57,0.75,1.39,1.23,2.32,1.4c0,0.05-0.01,0.1-0.01,0.15
		c0,0.89,0.31,1.74,0.88,2.42c0.61,0.73,1.46,1.18,2.4,1.31c0.17,0.93,0.67,1.76,1.43,2.33c0.76,0.57,1.68,0.82,2.62,0.73
		c0.26,0.91,0.82,1.68,1.62,2.18c0.8,0.5,1.74,0.66,2.66,0.5c0.26,0.9,0.82,1.67,1.62,2.17l0.79,0.38l0.04-0.04l0.72-0.35
		c0.8-0.5,1.36-1.27,1.62-2.17c0.92,0.17,1.86,0,2.66-0.5c0.8-0.5,1.36-1.27,1.62-2.18c0.94,0.09,1.86-0.17,2.62-0.73
		c0.76-0.57,1.26-1.4,1.43-2.33c0.94-0.12,1.79-0.58,2.4-1.31c0.57-0.68,0.88-1.53,0.88-2.42c0-0.05-0.01-0.1-0.01-0.15
		c0.92-0.17,1.74-0.66,2.31-1.4c0.51-0.66,0.78-1.46,0.78-2.29c0-0.11-0.01-0.22-0.02-0.34c0.89-0.33,1.61-0.97,2.04-1.82
		c0.27-0.53,0.41-1.11,0.41-1.7c0-0.34-0.06-0.68-0.16-1.01c0.82-0.48,1.42-1.24,1.7-2.15c0.11-0.36,0.16-0.72,0.16-1.09
		c0-0.56-0.14-1.11-0.38-1.62c0.74-0.59,1.23-1.42,1.38-2.35c0.03-0.2,0.05-0.4,0.05-0.59c0-0.73-0.23-1.44-0.64-2.06
		c0.65-0.69,1.02-1.59,1.02-2.54c0-0.01,0-0.02,0-0.03c0-0.93-0.35-1.8-0.96-2.5c0.63-0.7,0.99-1.58,0.99-2.52
		c0-0.94-0.35-1.83-0.98-2.52c0.63-0.7,0.98-1.58,0.98-2.52c0-0.94-0.35-1.83-0.98-2.52c0.63-0.7,0.98-1.58,0.98-2.52
		c0-0.94-0.35-1.83-0.98-2.52c0.63-0.7,0.98-1.58,0.98-2.52c0-0.94-0.35-1.83-0.98-2.52c0.63-0.7,0.98-1.58,0.98-2.52
		c0-0.63-0.15-1.23-0.44-1.77l-0.02-0.05l-0.05-0.02c-0.55-0.29-1.15-0.43-1.78-0.43C54.54,3.68,53.65,4.03,52.95,4.66L52.95,4.66z"
		/>
	<path class="st1" d="M29.87,30.74c-0.12,0.14-0.15,0.38-0.18,0.54c-0.06,0.27,0.1,0.76-0.21,1.19c-0.33,0.46-1.21-0.56-1.4,0.1
		c-0.15,0.55,0.47,1.61-0.15,1.91c-0.59,0.28-1.06,0.57-1.03,1.16c-0.08,0.13-0.23,0.03-0.31-0.03c-0.31-0.23-0.47-0.59-0.36-0.88
		c0.11-0.28,0.78-0.47,0.54-0.98c-0.38-0.81-0.56-1.66-0.46-2.01c0.03-0.11,0.29-0.04,0.86,0.09c0.36,0.08,0.84,0.26,0.84-0.04
		c0-0.77,0.21-1.52,0.54-1.76c0.19-0.13,0.32-0.21,0.48-0.17L29.87,30.74L29.87,30.74z"/>
	<path class="st1" d="M40.36,30.74c0.12,0.14,0.15,0.38,0.18,0.54c0.06,0.27-0.1,0.76,0.21,1.19c0.33,0.46,1.22-0.56,1.39,0.1
		c0.15,0.55-0.47,1.61,0.15,1.91c0.59,0.28,1.06,0.57,1.03,1.16c0.08,0.13,0.23,0.03,0.31-0.03c0.31-0.23,0.47-0.59,0.36-0.88
		c-0.11-0.28-0.78-0.47-0.54-0.98c0.38-0.81,0.56-1.66,0.47-2.01c-0.03-0.1-0.29-0.04-0.86,0.09c-0.36,0.08-0.84,0.26-0.84-0.04
		c0-0.77-0.21-1.52-0.54-1.76c-0.19-0.13-0.33-0.21-0.48-0.17L40.36,30.74L40.36,30.74z"/>
	<path class="st1" d="M35.11,23.28c-2.28,0-4.22,0.56-4.83,1.14c-0.07-0.29-0.17-0.73-0.24-1.01c-0.13-0.45-0.08-0.37-0.2-0.68
		c0.44-0.64,1.93-1.14,2.9-1.27c0.13-0.03,0.3-0.05,0.44-0.07c-0.01-0.68-0.01-6.56-0.95-10.69c-0.13-0.52-0.48-0.41-0.8-0.05
		c-1.29,1.12-2.11,1.97-3.09,3.14c0,0-0.35,0.34-0.23,0.52c0.05,0.08,0.31-0.16,0.39-0.28c0.93-1.11,1.9-1.88,3.13-2.92
		c0.64,1.65,1.02,7.94,1.13,9.75c-0.1,0.02-0.16,0.02-0.42,0.06c-0.97,0.18-2.21,0.6-2.71,1.2c-0.89-2.74-1.55-4.46-3.07-6.99
		c-0.25-0.41-0.35-0.83-0.13-1.29c1.09-1.91,4.62-5.57,8.68-7.59c4.06,2.02,7.6,5.68,8.68,7.59c0.23,0.46,0.12,0.88-0.13,1.29
		c-1.52,2.53-2.18,4.25-3.07,6.99c-0.5-0.59-1.75-1.01-2.71-1.2c-0.26-0.04-0.34-0.04-0.42-0.06c0.12-1.81,0.49-8.11,1.13-9.75
		c1.22,1.04,2.2,1.81,3.13,2.92c0.08,0.12,0.34,0.36,0.39,0.28c0.12-0.19-0.23-0.52-0.23-0.52c-0.98-1.17-1.8-2.03-3.09-3.14
		c-0.32-0.37-0.67-0.47-0.8,0.05c-0.95,4.13-0.95,10-0.96,10.69c0.12,0.01,0.31,0.04,0.44,0.07c0.97,0.12,2.47,0.62,2.91,1.27
		c-0.11,0.31-0.07,0.23-0.2,0.68c-0.08,0.27-0.18,0.72-0.24,1.01C39.33,23.83,37.39,23.28,35.11,23.28"/>
	<path class="st1" d="M37.4,26.3c-0.68,0.08-1.52,0.19-2.29,0.19c-0.87,0-1.23-0.05-1.5-0.1c-0.24-0.03-0.47-0.05-0.79-0.11
		c-0.22-0.05-0.18,0.06-0.4,0.28c-0.21,0.22-0.06,0.86-0.16,1.16c-0.09,0.28-0.17,0.33-0.31,0.39l-1.04-1.03
		c-0.05-0.4-0.09-0.89,0.24-1.19c-0.24-0.11-0.45-0.2-0.55-0.35c-0.14-0.11-0.15-0.24-0.17-0.33c0.13-0.65,1.06-0.78,2.17-1.06
		c1.16-0.29,4.28-0.34,5.97,0.21c-0.91,0.21-2.03,0.28-3.15,0.28c-0.14,0-0.22,0.43-0.07,0.43c0.66,0.04,3.19-0.12,3.93-0.45
		c0.19,0.07,0.11,0.03,0.33,0.24c-0.2,0.26-1,0.4-1.95,0.52c-0.82,0.11-2.25,0.18-3.59,0.11c0,0-0.2,0-0.35-0.02
		c-0.28-0.02-0.21,0.22-0.21,0.22c0,0.28,0.18,0.22,0.61,0.25c2.12,0.06,2.82-0.01,4.14-0.2c0.88-0.12,1.25-0.29,1.51-0.5
		c-0.03,0.16-0.14,0.2-0.13,0.26c-0.15,0.14-0.32,0.25-0.6,0.36c0.33,0.3,0.31,0.86,0.26,1.26l-1.04,1.04
		c-0.14-0.07-0.23-0.18-0.33-0.47c-0.1-0.3,0.06-0.94-0.15-1.16C37.57,26.33,37.61,26.28,37.4,26.3"/>
	<polygon class="st2" points="25.22,26.48 24.4,27.3 23.31,26.19 22.29,27.19 23.38,28.3 22.56,29.1 21.48,27.99 20.45,28.99 
		21.54,30.1 20.71,30.91 18.31,28.47 19.93,26.88 20.6,27.56 21.88,26.3 21.21,25.62 22.29,24.56 21.29,23.55 20.21,24.6 
		19.54,23.92 18.26,25.18 18.93,25.86 17.31,27.45 14.91,25 15.71,24.22 16.8,25.32 17.81,24.33 16.73,23.22 17.61,22.36 
		18.7,23.46 19.71,22.46 18.63,21.36 19.43,20.57 25.22,26.48 	"/>
	<path class="st2" d="M37.26,33.16l4.78-4.87c0.43,0.04,0.8-0.2,1.12-0.51c0.36-0.36,0.54-0.55,0.54-0.55l-0.31-0.31l1.15-1.17
		l5.8-5.89l0.72-0.73c-0.42-0.42,0.13-0.63,0.49-0.73c0.19-0.04,0.38-0.15,0.52-0.3c0.42-0.43,0.41-1.12-0.01-1.54
		c-0.43-0.42-1.11-0.42-1.54,0.01c-0.14,0.14-0.23,0.31-0.27,0.49c-0.09,0.36-0.32,0.95-0.75,0.54l-7.66,7.8
		c-0.21-0.21-0.31-0.29-0.31-0.29s-0.38,0.39-0.53,0.55c-0.3,0.31-0.54,0.68-0.49,1.11l-4.76,4.85L37.26,33.16L37.26,33.16z"/>
	<path class="st2" d="M34.55,35.9l-1,1.03c0.05,0.43-0.08,0.9-0.4,1.22c-0.31,0.32-0.79,0.47-1.23,0.42l-1.7,1.73
		c0.05,0.44-0.08,0.95-0.4,1.27c-0.27-0.5-0.61-0.96-1.03-1.38c-0.4-0.39-0.85-0.71-1.32-0.96c0.31-0.31,0.72-0.43,1.14-0.39
		c0.86-0.87,0.79-0.79,1.8-1.83c-0.04-0.42,0.09-0.86,0.39-1.17c0.31-0.31,0.73-0.45,1.16-0.41c0,0,1.07-1.08,1.06-1.09
		C33.02,34.34,34.55,35.9,34.55,35.9"/>
	<polygon class="st2" points="45.1,26.48 45.92,27.3 47.01,26.19 48.03,27.19 46.95,28.3 47.76,29.1 48.85,27.99 49.87,28.99 
		48.78,30.1 49.61,30.91 52.01,28.47 50.39,26.88 49.73,27.56 48.44,26.3 49.11,25.62 48.03,24.56 49.03,23.55 50.11,24.6 
		50.78,23.92 52.06,25.18 51.39,25.86 53.01,27.45 55.41,25 54.61,24.22 53.52,25.32 52.51,24.33 53.59,23.22 52.71,22.36 
		51.62,23.46 50.61,22.46 51.69,21.36 50.89,20.57 45.1,26.48 	"/>
	<path class="st2" d="M21.11,45.68c-0.01-0.04-0.03-0.09-0.06-0.12c-0.04-0.04-0.08-0.06-0.13-0.07l-1.48-0.34
		c-0.71-0.16-1.17-0.41-1.16-0.7c0-0.28,0.46-0.52,1.16-0.68l1.41-0.31c0.07,0,0.15-0.03,0.2-0.08c0.04-0.04,0.08-0.1,0.09-0.15
		c0.18-0.47,0.46-0.92,0.84-1.29c0.37-0.37,0.8-0.65,1.34-0.82c0.04-0.01,0.08-0.03,0.11-0.07c0.04-0.04,0.06-0.08,0.07-0.13
		l0.34-1.48c0.16-0.71,0.41-1.17,0.7-1.16c0.28,0,0.52,0.46,0.68,1.16l0.31,1.41c0,0.07,0.03,0.15,0.08,0.2
		c0.04,0.04,0.1,0.07,0.15,0.08c0.47,0.18,0.92,0.46,1.3,0.85c0.38,0.39,0.65,0.85,0.82,1.32c0.01,0.04,0.03,0.09,0.06,0.12
		c0.04,0.04,0.08,0.06,0.13,0.07l1.48,0.34c0.71,0.16,1.17,0.41,1.17,0.7c0,0.28-0.46,0.52-1.16,0.67l-1.41,0.31
		c-0.07,0-0.15,0.03-0.2,0.08c-0.04,0.04-0.07,0.09-0.08,0.14c-0.18,0.48-0.46,0.93-0.85,1.31c-0.39,0.38-0.85,0.65-1.33,0.82
		c-0.04,0.01-0.08,0.03-0.11,0.06c-0.04,0.04-0.06,0.08-0.07,0.13l-0.34,1.48c-0.16,0.71-0.41,1.17-0.7,1.16
		c-0.28,0-0.52-0.45-0.67-1.16l-0.31-1.41c0-0.07-0.03-0.15-0.08-0.2c-0.04-0.04-0.1-0.07-0.15-0.08c-0.47-0.18-0.92-0.46-1.3-0.85
		C21.55,46.62,21.28,46.16,21.11,45.68"/>
	<path class="st2" d="M20.7,43c0.19-0.5,0.49-0.95,0.9-1.36c0.41-0.41,0.89-0.72,1.46-0.97l0.31-1.4c-1.09,0.21-1.92,0.7-2.64,1.41
		c-0.72,0.71-1.2,1.44-1.48,2.64L20.7,43L20.7,43z"/>
	<polygon class="st0" points="24.47,41.2 23.99,42.01 23.98,42.85 22.82,42.85 22.82,44.01 22,44.02 21.18,44.49 21.99,44.98 
		22.82,44.98 22.82,46.13 23.99,46.13 23.99,46.99 24.46,47.8 24.95,46.99 24.94,46.13 26.11,46.14 26.11,44.97 26.96,44.97 
		27.78,44.49 26.97,44 26.11,44.01 26.11,42.85 24.95,42.85 24.95,42.02 24.47,41.2 	"/>
	<path class="st2" d="M22.99,48.28c-0.5-0.19-0.95-0.49-1.36-0.89c-0.41-0.41-0.73-0.88-0.97-1.46l-1.4-0.31
		c0.22,1.09,0.7,1.92,1.42,2.64c0.71,0.72,1.44,1.19,2.64,1.47L22.99,48.28L22.99,48.28z"/>
	<path class="st2" d="M28.26,45.99c-0.19,0.5-0.49,0.95-0.9,1.36c-0.41,0.41-0.88,0.73-1.46,0.97l-0.31,1.4
		c1.09-0.22,1.92-0.71,2.64-1.42c0.72-0.71,1.2-1.44,1.47-2.64L28.26,45.99L28.26,45.99z"/>
	<path class="st2" d="M25.98,40.72c0.5,0.19,0.96,0.48,1.36,0.89c0.41,0.41,0.73,0.88,0.98,1.46l1.41,0.3
		c-0.22-1.09-0.71-1.92-1.42-2.63c-0.71-0.72-1.45-1.19-2.64-1.46L25.98,40.72L25.98,40.72z"/>
	<path class="st2" d="M42.37,45.68c-0.01-0.04-0.03-0.09-0.06-0.12c-0.04-0.04-0.08-0.06-0.13-0.07l-1.48-0.34
		c-0.71-0.16-1.17-0.41-1.16-0.7c0-0.28,0.46-0.52,1.16-0.68l1.41-0.31c0.07,0,0.15-0.03,0.2-0.08c0.04-0.04,0.08-0.1,0.09-0.15
		c0.18-0.47,0.46-0.92,0.84-1.29c0.37-0.37,0.79-0.65,1.33-0.82c0.04-0.01,0.08-0.03,0.11-0.07c0.04-0.04,0.06-0.08,0.07-0.13
		l0.34-1.48c0.16-0.71,0.41-1.17,0.7-1.16c0.28,0,0.52,0.46,0.67,1.16l0.31,1.41c0,0.07,0.03,0.15,0.08,0.2
		c0.04,0.04,0.09,0.07,0.15,0.08c0.48,0.18,0.93,0.46,1.3,0.85c0.38,0.39,0.65,0.85,0.82,1.32c0.01,0.04,0.03,0.09,0.06,0.12
		c0.04,0.04,0.08,0.06,0.13,0.07l1.48,0.34c0.71,0.16,1.17,0.41,1.16,0.7c0,0.28-0.46,0.52-1.16,0.67l-1.41,0.31
		c-0.07,0-0.15,0.03-0.2,0.08c-0.04,0.04-0.07,0.09-0.08,0.14c-0.18,0.48-0.46,0.93-0.85,1.31c-0.39,0.38-0.85,0.65-1.33,0.82
		c-0.04,0.01-0.08,0.03-0.11,0.06c-0.04,0.04-0.06,0.08-0.07,0.13l-0.34,1.48c-0.16,0.71-0.41,1.17-0.7,1.16
		c-0.28,0-0.52-0.45-0.68-1.16l-0.31-1.41c0-0.07-0.03-0.15-0.08-0.2c-0.04-0.04-0.09-0.07-0.15-0.08c-0.47-0.18-0.93-0.46-1.3-0.85
		C42.81,46.62,42.54,46.16,42.37,45.68"/>
	<path class="st2" d="M41.96,43c0.19-0.5,0.49-0.95,0.9-1.36c0.41-0.41,0.89-0.72,1.46-0.97l0.31-1.4c-1.09,0.21-1.92,0.7-2.64,1.41
		c-0.72,0.71-1.2,1.44-1.48,2.64L41.96,43L41.96,43z"/>
	<polygon class="st0" points="45.74,41.2 45.25,42.01 45.24,42.85 44.09,42.85 44.09,44.01 43.26,44.02 42.44,44.49 43.25,44.98 
		44.09,44.98 44.08,46.13 45.25,46.13 45.25,46.99 45.72,47.8 46.21,46.99 46.21,46.13 47.37,46.14 47.37,44.97 48.22,44.97 
		49.04,44.49 48.23,44 47.37,44.01 47.37,42.85 46.21,42.85 46.21,42.02 45.74,41.2 	"/>
	<path class="st2" d="M44.25,48.28c-0.5-0.19-0.95-0.49-1.36-0.89c-0.41-0.41-0.73-0.88-0.97-1.46l-1.4-0.31
		c0.22,1.09,0.71,1.92,1.42,2.64c0.71,0.72,1.44,1.19,2.64,1.47L44.25,48.28L44.25,48.28z"/>
	<path class="st2" d="M49.52,45.99c-0.19,0.5-0.49,0.95-0.9,1.36c-0.41,0.41-0.88,0.73-1.46,0.97l-0.31,1.4
		c1.09-0.22,1.92-0.71,2.64-1.42c0.72-0.71,1.19-1.44,1.47-2.64L49.52,45.99L49.52,45.99z"/>
	<path class="st2" d="M47.24,40.72c0.5,0.19,0.96,0.48,1.36,0.89c0.41,0.41,0.73,0.88,0.98,1.46l1.4,0.3
		c-0.22-1.09-0.71-1.92-1.42-2.63c-0.71-0.72-1.45-1.19-2.64-1.46L47.24,40.72L47.24,40.72z"/>
	<polygon class="st0" points="22.54,72.76 25.51,74.15 25.87,73.38 25.52,73.21 25.34,73.61 23.94,72.95 24.58,71.57 25.74,72.11 
		25.55,72.51 25.89,72.67 26.39,71.61 26.04,71.45 25.87,71.82 24.71,71.29 25.25,70.13 26.57,70.75 26.39,71.13 26.74,71.29 
		27.09,70.53 24.2,69.19 24.06,69.5 24.48,69.7 23.11,72.64 22.68,72.44 22.54,72.76 	"/>
	<path class="st0" d="M31.41,73.47c0.2-1.03-0.42-2.14-1.71-2.39c-1.29-0.25-2.28,0.54-2.48,1.57c-0.2,1.03,0.42,2.14,1.71,2.39
		C30.22,75.29,31.21,74.5,31.41,73.47L31.41,73.47L31.41,73.47z M30.42,73.28c-0.29,1.51-1.07,1.56-1.44,1.49
		c-0.36-0.07-1.07-0.41-0.77-1.92c0.29-1.51,1.08-1.56,1.44-1.49C30.01,71.43,30.72,71.76,30.42,73.28"/>
	<polygon class="st0" points="33.86,75.76 37.13,75.59 37.09,74.74 36.71,74.76 36.73,75.2 35.18,75.28 35.1,73.75 36.37,73.69 
		36.4,74.13 36.78,74.11 36.72,72.95 36.34,72.97 36.36,73.38 35.09,73.44 35.02,72.17 36.48,72.1 36.5,72.52 36.88,72.5 
		36.83,71.66 33.65,71.83 33.67,72.17 34.13,72.15 34.3,75.39 33.84,75.42 33.86,75.76 	"/>
	<polygon class="st0" points="39.25,75.41 41.04,75.09 40.98,74.75 40.52,74.83 39.97,71.7 40.94,71.53 41.02,71.97 41.39,71.91 
		41.24,71.05 37.68,71.68 37.83,72.53 38.2,72.47 38.12,72.02 39.1,71.85 39.65,74.98 39.19,75.06 39.25,75.41 	"/>
	<path class="st0" d="M46.33,70.47c-0.32-0.72-1.11-0.87-1.92-0.5l-1.53,0.68l0.14,0.32l0.43-0.19l1.32,2.97l-0.43,0.19l0.14,0.32
		l1.74-0.78l-0.14-0.32l-0.51,0.22l-0.45-1.01l0.3-0.13C46.23,71.88,46.66,71.2,46.33,70.47L46.33,70.47L46.33,70.47z M45.54,70.85
		c0.19,0.42,0.14,0.89-0.36,1.12l-0.19,0.08l-0.73-1.64l0.16-0.07C44.9,70.12,45.32,70.36,45.54,70.85"/>
	<path class="st0" d="M14.43,60.86h0.48c-0.06-0.14-0.14-0.28-0.24-0.42l-1.04-1.43l-0.28,0.2l0.27,0.38l-1.75,1.27l-0.88,0.64
		l-0.28-0.38l-0.28,0.2l1.07,1.47l0.28-0.2l-0.28-0.38l0.97-0.71l0.03,0.05c0.07,0.1,0,0.24-0.13,0.55l-0.29,0.67
		c-0.23,0.53-0.22,0.62,0.05,0.99c0.12,0.16,0.32,0.38,0.39,0.46l0.28-0.2c-0.03-0.04-0.06-0.07-0.09-0.11
		c-0.12-0.16-0.07-0.27,0.02-0.51l0.43-1.11c0.34,0.25,0.86,0.47,1.37,0.1c0.51-0.37,0.59-0.95,0.36-1.52L14.43,60.86
		c0.06,0.32-0.1,0.59-0.39,0.8c-0.39,0.28-0.84,0.3-1.2-0.19l-0.11-0.14l0.64-0.46l0.77-0.56l0.11,0.14
		C14.34,60.6,14.4,60.73,14.43,60.86L14.43,60.86L14.43,60.86z"/>
	<path class="st0" d="M19.67,70.71l-0.19-0.11l1.37-2.29l0.3-0.5l0.15,0.09c0.2,0.12,0.36,0.26,0.48,0.4l0.65,0
		c-0.17-0.19-0.38-0.36-0.64-0.52l-1.62-0.98L20,67.12l0.4,0.24l-0.57,0.95l-1.1,1.83l-0.4-0.24l-0.18,0.3l1.62,0.98
		c1.12,0.67,2.22,0.37,2.81-0.61c0.48-0.79,0.42-1.61-0.14-2.25l-0.65,0c0.38,0.47,0.32,1.07-0.08,1.75
		C21.34,70.69,20.65,71.3,19.67,70.71"/>
	<path class="st0" d="M51.59,70.57l-0.17-0.3l-0.33,0.19l-2.92-2.15l-0.24-0.18l-0.3,0.18l-0.21,0.12l0.51,3.85l-0.28,0.16l0.17,0.3
		l0.99-0.57l-0.17-0.3l-0.39,0.22l-0.1-0.76l1.48-0.85l0.62,0.45l-0.39,0.23l0.17,0.3L51.59,70.57L51.59,70.57z M49.34,70.26
		l-1.23,0.71l-0.26-1.83L49.34,70.26L49.34,70.26z"/>
	<polygon class="st0" points="53.79,68.6 53.56,68.34 53.21,68.65 52.92,68.31 51.12,66.25 51.87,65.6 52.16,65.94 52.45,65.69 
		51.88,65.03 49.15,67.41 49.71,68.07 50,67.82 49.71,67.47 50.45,66.83 51.75,68.31 52.54,69.23 52.18,69.53 52.41,69.79 
		53.79,68.6 	"/>
	<path class="st0" d="M17.56,64.08c-0.88-0.98-2.14-0.94-2.93-0.24c-0.78,0.7-0.95,1.96-0.07,2.93c0.88,0.98,2.14,0.94,2.93,0.24
		C18.27,66.31,18.44,65.06,17.56,64.08L17.56,64.08L17.56,64.08z M16.82,66.27c-1.15,1.03-1.8,0.6-2.05,0.33
		c-0.25-0.27-0.61-0.97,0.54-2c1.15-1.03,1.8-0.6,2.05-0.33C17.6,64.54,17.96,65.24,16.82,66.27"/>
	<path class="st0" d="M57.55,64.43l-0.27-0.22c-0.02,0.04-0.05,0.08-0.08,0.11c-0.12,0.15-0.24,0.14-0.5,0.11l-1.18-0.12
		c0.15-0.39,0.23-0.95-0.26-1.35c-0.61-0.5-1.39-0.26-1.91,0.39l-1.11,1.37l0.27,0.22l0.29-0.36l2.52,2.04l-0.29,0.36l0.27,0.22
		l1.14-1.42l-0.27-0.22l-0.29,0.36l-0.93-0.76l0.04-0.04c0.08-0.1,0.23-0.06,0.56-0.01l0.72,0.11c0.57,0.08,0.65,0.05,0.94-0.3
		C57.33,64.77,57.5,64.53,57.55,64.43L57.55,64.43L57.55,64.43z M54.82,64.85l-0.11,0.14l-1.35-1.09l0.11-0.14
		c0.38-0.47,0.83-0.43,1.22-0.12C55.07,63.95,55.2,64.37,54.82,64.85"/>
	<polygon class="st0" points="59.19,62.11 58.9,61.91 58.63,62.3 56.59,60.86 55.97,60.43 56.24,60.05 55.96,59.85 55.25,60.86 
		54.91,61.34 55.2,61.54 55.46,61.16 58.13,63.02 57.86,63.4 58.14,63.6 59.19,62.11 	"/>
	<path class="st0" d="M61.84,57.51l-0.3-0.17l-0.19,0.33l-3.9-0.43l-0.3,0.51l2.37,3.08l-0.02,0.04l-0.14,0.24l0.3,0.17l0.24-0.41
		l0.34-0.58l-0.3-0.17l-0.22,0.38l-0.46-0.61l0.85-1.48l0.77,0.08l-0.23,0.39l0.3,0.17L61.84,57.51L61.84,57.51z M59.73,58.36
		l-0.71,1.23l-1.13-1.46L59.73,58.36L59.73,58.36z"/>
	<path class="st0" d="M12.7,57.12l-0.81-1.47l-0.3,0.17l0.23,0.41L8.97,57.8l-0.23-0.41l-0.3,0.17l0.93,1.67l0.3-0.17L9.4,58.58
		l0.96-0.53l0.16,0.28c0.43,0.77,1.14,1.14,1.85,0.75C13.06,58.7,13.13,57.9,12.7,57.12L12.7,57.12L12.7,57.12z M12.32,57.15
		c0.26,0.47,0.06,0.91-0.41,1.17c-0.4,0.22-0.88,0.22-1.14-0.26l-0.1-0.18L12.24,57L12.32,57.15L12.32,57.15z"/>
	<path class="st2" d="M25.78,25.76l1.15,1.17l-0.31,0.31c0,0,0.18,0.19,0.54,0.55c0.31,0.31,0.68,0.55,1.12,0.51l8.49,8.64
		c-0.05,0.43,0.08,0.9,0.4,1.22c0.31,0.32,0.79,0.47,1.22,0.42l1.69,1.75c-0.05,0.43,0.08,0.95,0.4,1.27
		c0.27-0.5,0.61-0.96,1.03-1.38c0.4-0.39,0.86-0.71,1.33-0.96c-0.31-0.31-0.72-0.44-1.14-0.4c-0.85-0.87-0.77-0.8-1.79-1.84
		c0.04-0.42-0.09-0.86-0.39-1.17c-0.31-0.31-0.73-0.45-1.16-0.41l-8.54-8.68c0.04-0.42-0.19-0.8-0.49-1.11
		c-0.15-0.16-0.53-0.55-0.53-0.55s-0.1,0.09-0.31,0.29l-7.66-7.8c-0.43,0.42-0.65-0.17-0.75-0.54c-0.05-0.18-0.14-0.35-0.27-0.49
		c-0.42-0.43-1.11-0.43-1.54-0.01c-0.43,0.42-0.43,1.11-0.01,1.54c0.15,0.15,0.33,0.26,0.52,0.3c0.36,0.1,0.91,0.3,0.49,0.73
		l0.72,0.73L25.78,25.76L25.78,25.76z"/>
	</g>
	<path class="st1" d="M84.9,20.17c3.03,0,5.02,2.27,6.28,5.05h0.06l-0.11-5.69c-0.36,0.42-0.73,0.98-1.65,0.98
		c-0.87,0-2.33-0.98-4.57-0.98c-3.31,0-6.11,2.1-6.11,5.41c0,3.84,3.03,4.79,5.92,5.64c2.69,0.79,5.27,1.49,5.27,4.29
		c0,2.72-1.99,4.21-4.46,4.21c-2.83,0-5.36-1.99-6.9-5.52h-0.06l0.31,6.17c0.53-0.56,0.98-1.04,1.77-1.04
		c1.09,0,2.64,1.04,4.88,1.04c3.36,0,6.7-1.68,6.7-5.55c0-4.32-3.65-5.13-6.81-6c-2.41-0.67-4.52-1.51-4.52-4.07
		C80.89,21.43,82.83,20.17,84.9,20.17L84.9,20.17z M95.76,19.81c-0.5,0-1.04-0.03-1.35-0.2l-0.95,5.69h0.06
		c1.8-3.14,2.78-4.8,5.92-4.8h2.33v15.56c0,1.85-0.39,2.75-1.74,3.31v0.06h6v-0.06c-1.35-0.56-1.74-1.46-1.74-3.31V20.51h2.33
		c3.14,0,4.12,1.65,5.92,4.8h0.06l-0.95-5.69c-0.31,0.17-0.84,0.2-1.35,0.2H95.76L95.76,19.81z M128.01,31.3
		c4.26,0,7.38-1.91,7.38-5.75s-3.11-5.75-7.38-5.75h-8.33v0.06c1.35,0.56,1.6,1.68,1.6,3.53v12.45c0,1.85-0.25,2.97-1.6,3.53v0.06
		h6.42v-0.06c-1.96-0.67-2.3-1.54-2.3-3.31V31.3H128.01L128.01,31.3z M123.8,30.57V20.53h3.73c3.62,0,5.13,2.02,5.13,5.02
		c0,3-1.51,5.02-5.13,5.02H123.8L123.8,30.57z M137.01,19.81v0.06c1.35,0.56,1.6,1.68,1.6,3.53v12.45c0,1.85-0.25,2.97-1.6,3.53
		v0.06h15l0.9-5.16h-0.06c-1.49,2.97-3.31,4.43-6.45,4.43h-5.27v-8.86h3.95c2.27,0,2.97,0.11,3.93,2.69h0.06V26h-0.06
		c-0.95,2.61-1.65,3.11-3.93,3.11h-3.95v-8.58h4.68c3.14,0,4.74,1.26,6.2,3.93h0.06l-0.95-4.85c-0.31,0.17-0.84,0.2-1.35,0.2H137.01
		L137.01,19.81z M156.36,19.81c-0.5,0-1.04-0.03-1.35-0.2l-0.95,5.69h0.06c1.8-3.14,2.78-4.8,5.92-4.8h2.33v15.56
		c0,1.85-0.39,2.75-1.74,3.31v0.06h6v-0.06c-1.35-0.56-1.74-1.46-1.74-3.31V20.51h2.33c3.14,0,4.12,1.65,5.92,4.8h0.06l-0.95-5.69
		c-0.31,0.17-0.84,0.2-1.35,0.2H156.36L156.36,19.81z M174.81,19.81v0.06c1.35,0.56,1.6,1.68,1.6,3.53v12.45
		c0,1.85-0.25,2.97-1.6,3.53v0.06h15l0.9-5.16h-0.06c-1.49,2.97-3.31,4.43-6.45,4.43h-5.27v-8.86h3.95c2.27,0,2.97,0.11,3.93,2.69
		h0.06V26h-0.06c-0.95,2.61-1.65,3.11-3.93,3.11h-3.95v-8.58h4.68c3.14,0,4.74,1.26,6.2,3.93h0.06l-0.95-4.85
		c-0.31,0.17-0.84,0.2-1.35,0.2H174.81L174.81,19.81z M196.79,20.53h3.9c3.14,0,4.91,1.46,4.91,4.57c0,3.31-2.02,4.38-4.91,4.38
		h-3.9V20.53L196.79,20.53z M192.67,19.81v0.06c1.35,0.56,1.6,1.68,1.6,3.53v12.45c0,1.85-0.25,2.97-1.6,3.53v0.06h5.72v-0.06
		c-1.35-0.56-1.6-1.68-1.6-3.53v-5.64h3.39c2.44,0,3.31,1.68,4.01,3.67l0.87,2.52c0.48,1.35,1.01,2.55,1.6,3.03h4.29v-0.06
		c-1.71-0.62-2.58-1.26-3.31-3.45l-0.79-2.36c-0.67-1.99-2.07-3.39-4.93-3.62c3.14-0.11,6.45-1.4,6.45-4.99
		c0-3.81-3.28-5.16-7.32-5.16H192.67L192.67,19.81z M212.5,22.99c0.2,0.35,0.31,0.77,0.31,1.26c0,0.49-0.08,0.92-0.24,1.28
		c-0.16,0.35-0.34,0.61-0.55,0.77c-0.21,0.16-0.39,0.31-0.55,0.45c-0.16,0.14-0.24,0.25-0.24,0.34s0.04,0.17,0.11,0.25
		c0.07,0.08,0.16,0.13,0.25,0.13c0.41,0,0.98-0.38,1.71-1.15c0.35-0.36,0.66-0.87,0.92-1.54s0.39-1.43,0.39-2.26
		s-0.2-1.51-0.59-2.03c-0.17-0.23-0.38-0.45-0.64-0.69c-0.26-0.23-0.48-0.35-0.64-0.35c-0.28,0-0.55,0.18-0.81,0.53
		c-0.17,0.19-0.27,0.3-0.31,0.34c-0.51,0.5-0.76,0.84-0.76,1.01s0.1,0.34,0.31,0.51c0.21,0.17,0.43,0.32,0.66,0.45
		C212.07,22.4,212.29,22.64,212.5,22.99L212.5,22.99z M223.52,20.17c3.03,0,5.02,2.27,6.28,5.05h0.06l-0.11-5.69
		c-0.36,0.42-0.73,0.98-1.65,0.98c-0.87,0-2.33-0.98-4.57-0.98c-3.31,0-6.11,2.1-6.11,5.41c0,3.84,3.03,4.79,5.92,5.64
		c2.69,0.79,5.27,1.49,5.27,4.29c0,2.72-1.99,4.21-4.46,4.21c-2.83,0-5.36-1.99-6.9-5.52h-0.06l0.31,6.17
		c0.53-0.56,0.98-1.04,1.77-1.04c1.09,0,2.64,1.04,4.88,1.04c3.36,0,6.7-1.68,6.7-5.55c0-4.32-3.65-5.13-6.82-6
		c-2.41-0.67-4.52-1.51-4.52-4.07C219.51,21.43,221.44,20.17,223.52,20.17L223.52,20.17z"/>
	<path class="st1" d="M121.98,46.86c-0.24,0.28-0.6,0.65-1.22,0.65c-0.58,0-1.59-0.65-3.08-0.65c-3.68,0-6.67,2.88-6.67,6.73
		c0,4.04,2.77,6.73,6.41,6.73c2.73,0,4.6-1.53,5.05-3.93l-0.11-0.04c-0.93,2.26-2.51,3.12-4.66,3.12c-2.54,0-4.75-2.19-4.75-5.89
		c0-3.63,1.72-6.3,4.73-6.3c2.08,0,3.64,1.53,4.41,3.68h0.04L121.98,46.86L121.98,46.86z M136.73,53.59c0-3.93-2.93-6.73-6.41-6.73
		c-3.48,0-6.41,2.8-6.41,6.73c0,3.93,2.93,6.73,6.41,6.73C133.8,60.32,136.73,57.51,136.73,53.59L136.73,53.59z M134.79,53.59
		c0,3.59-1.53,6.3-4.47,6.3c-2.94,0-4.47-2.71-4.47-6.3c0-3.59,1.53-6.3,4.47-6.3C133.26,47.28,134.79,50,134.79,53.59L134.79,53.59
		z M138.45,47.04v0.04c0.9,0.37,1.07,1.12,1.07,2.36v8.3c0,1.23-0.17,1.98-1.07,2.36v0.04h9.52l0.6-3.63h-0.04
		c-0.99,1.98-2.21,3.14-4.3,3.14h-3.03V49.43c0-1.23,0.17-1.98,1.07-2.36v-0.04H138.45L138.45,47.04z M149.99,47.04v0.04
		c0.9,0.37,1.07,1.12,1.07,2.36v8.3c0,1.23-0.17,1.98-1.07,2.36v0.04h9.52l0.6-3.63h-0.04c-0.99,1.98-2.21,3.14-4.3,3.14h-3.03
		V49.43c0-1.23,0.17-1.98,1.07-2.36v-0.04H149.99L149.99,47.04z M161.52,47.04v0.04c0.9,0.37,1.07,1.12,1.07,2.36v8.3
		c0,1.23-0.17,1.98-1.07,2.36v0.04h10l0.6-3.44h-0.04c-0.99,1.98-2.21,2.95-4.3,2.95h-3.51v-5.91h2.64c1.52,0,1.98,0.07,2.62,1.79
		h0.04v-4.36h-0.04c-0.64,1.74-1.1,2.07-2.62,2.07h-2.64v-5.72h3.12c2.09,0,3.16,0.84,4.13,2.62h0.04l-0.63-3.24
		c-0.21,0.11-0.56,0.13-0.9,0.13H161.52L161.52,47.04z M180.22,47.28c2.08,0,3.65,1.53,4.41,3.68h0.04l-0.15-4.11
		c-0.24,0.28-0.6,0.65-1.22,0.65c-0.58,0-1.59-0.65-3.08-0.65c-3.7,0-6.69,2.84-6.69,6.9c0,3.79,2.71,6.56,6.41,6.56
		c1.98,0,3.35-1.2,3.78-2.37l1.5,2.37h0.04v-3.94c0-1.23,0.17-1.98,1.07-2.36v-0.04h-3.81v0.04c0.9,0.37,1.07,1.12,1.07,2.36v0.21
		c0,1.94-1.4,3.03-3.4,3.03c-2.77,0-4.69-2.3-4.69-5.83C175.47,49.92,177.19,47.28,180.22,47.28L180.22,47.28z M187.79,47.04v0.04
		c0.9,0.37,1.07,1.12,1.07,2.36v8.3c0,1.23-0.17,1.98-1.07,2.36v0.04h10l0.6-3.44h-0.04c-0.99,1.98-2.21,2.95-4.3,2.95h-3.51v-5.91
		h2.64c1.51,0,1.98,0.07,2.62,1.79h0.04v-4.36h-0.04c-0.63,1.74-1.1,2.07-2.62,2.07h-2.64v-5.72h3.12c2.09,0,3.16,0.84,4.13,2.62
		h0.04l-0.63-3.24c-0.21,0.11-0.56,0.13-0.9,0.13H187.79L187.79,47.04z"/>
</g>
</svg>
